# xmcd
#
# Track frame offsets: 
#        150
#        24251
#        39642
#        52752
#        73690
#        100315
#        113849
#        128985
#        154595
#        179074
#        207719
#        227282
#        262755
#        282741
#        307673
#
# Disc length: 4514 seconds
#
# Revision: 0
# Processed by: cddbd v1.5.2PL0 Copyright (c) Steve Scherf et al.
# Submitted via: ExactAudioCopy v0.99pb4
#
DISCID=ca11a00f
DTITLE=Various  - The Best of the Blues Live
DYEAR=2007
DGENRE=Blues
TTITLE0=Country Girl [Live] - Lightnin' Hopkins
TTITLE1=Road Runner [Live] - Big Joe Turner
TTITLE2=Baby Please Don't Go [Live] - Muddy Waters
TTITLE3=Flip, Flop and Fly [Live] - Big Joe Turner
TTITLE4=Caldonia [Live] - Muddy Waters
TTITLE5=Iceman [Live] - Albert Collins
TTITLE6=Highway 69 [Live] - Sonny Boy Williamson
TTITLE7=Bright Lights, Big City [Live] - Bill Wyman's Rhythm Kings
TTITLE8=Chain Gang Blues [Live] - Big Joe Williams -  Brownie McGhee -  
TTITLE8=Lightnin' Hopkins -  Sonny Terry
TTITLE9=Lonesome Blues [Live] - Robert Pete Williams
TTITLE10=It Ain't Right [Live] - John Mayall and the Bluesbreakers
TTITLE11=Hard Times [Live] - John Lee Hooker
TTITLE12=Country Boy Blues [Live] - Otis Spann
TTITLE13=Shake Your Love [Live] - Climax Blues Band
TTITLE14=All My Love [Live] - Otis Rush
EXTD=
EXTT0=
EXTT1=
EXTT2=
EXTT3=
EXTT4=
EXTT5=
EXTT6=
EXTT7=
EXTT8=
EXTT9=
EXTT10=
EXTT11=
EXTT12=
EXTT13=
EXTT14=
PLAYORDER=
